<?xml version="1.0" encoding="utf-8"?>
<!-- Generator: Adobe Illustrator 16.0.0, SVG Export Plug-In . SVG Version: 6.00 Build 0)  -->
<!DOCTYPE svg PUBLIC "-//W3C//DTD SVG 1.1//EN" "http://www.w3.org/Graphics/SVG/1.1/DTD/svg11.dtd">
<svg version="1.1" id="Layer_1" xmlns="http://www.w3.org/2000/svg" xmlns:xlink="http://www.w3.org/1999/xlink" x="0px" y="0px"
	 width="367px" height="408.286px" viewBox="0 0 367 408.286" enable-background="new 0 0 367 408.286" xml:space="preserve">
<g id="Layer_1_1_">
	<g>
		<polygon fill="#F7931E" points="136,103.503 184,121.391 184,81.391 136,63.503 		"/>
		<polygon fill="#F7931E" points="0,52 48,69.888 48,29.888 0,12 		"/>
		<polygon fill="#F7931E" points="0,339 184,407.571 184,119.571 0,51 		"/>
	</g>
	<g>
		<polygon fill="#FBB03B" points="232,103.338 184,121.052 184,81.052 232,63.338 		"/>
		<polygon fill="#FBB03B" points="367,55.221 319,72.935 319,32.935 367,15.221 		"/>
		<polygon fill="#FBB03B" points="367,340.52 184,408.051 184,120.052 367,52.52 		"/>
	</g>
</g>
<g id="Layer_2">
</g>
<g>
	<ellipse fill="none" stroke="#F2F2F2" stroke-width="20" stroke-miterlimit="10" cx="282.5" cy="265.393" rx="59.5" ry="61.25"/>
	<rect x="208" y="264.643" fill="#F4E638" width="74" height="128"/>
	<rect x="282" y="264.643" fill="#DAD300" width="74" height="128"/>
</g>
<g>
	
		<image overflow="visible" opacity="0.47" width="178" height="229" xlink:href="4273D85E.png"  transform="matrix(1 0 0 1 200 185.6431)">
	</image>
	<g>
		<g>
			<ellipse fill="none" stroke="#F2F2F2" stroke-width="20" stroke-miterlimit="10" cx="282.5" cy="265.393" rx="59.5" ry="61.25"/>
			<rect x="208" y="264.643" fill="#F4E638" width="74" height="128"/>
			<rect x="282" y="264.643" fill="#DAD300" width="74" height="128"/>
		</g>
	</g>
</g>
</svg>
